<svg>
<symbol id="person" width="18" height="18" viewBox="0 0 18 18" fill="none" xmlns="http://www.w3.org/2000/svg">
<g clip-path="url(#clip0_833738_96)">
<path d="M9 9C10.6575 9 12 7.6575 12 6C12 4.3425 10.6575 3 9 3C7.3425 3 6 4.3425 6 6C6 7.6575 7.3425 9 9 9ZM9 10.5C6.9975 10.5 3 11.505 3 13.5V14.25C3 14.6625 3.3375 15 3.75 15H14.25C14.6625 15 15 14.6625 15 14.25V13.5C15 11.505 11.0025 10.5 9 10.5Z" fill="#ffffff"/>
</g>
<defs>
<clipPath id="clip0_833738_96">
<rect width="18" height="18" fill="white"/>
</clipPath>
</defs>
</symbol>
<symbol id="phone" width="13" height="13" viewBox="0 0 13 13" fill="none" xmlns="http://www.w3.org/2000/svg">
<path d="M11.7263 8.86511L9.88811 8.65525C9.44667 8.60459 9.01246 8.75656 8.70128 9.06775L7.36971 10.3993C5.3217 9.35722 3.64276 7.68551 2.60067 5.63025L3.93947 4.29144C4.25065 3.98025 4.40263 3.54605 4.35197 3.1046L4.1421 1.28092C4.05526 0.549999 3.44013 0 2.70198 0H1.45002C0.632259 0 -0.0479991 0.680262 0.00265842 1.49802C0.386208 7.67827 5.32894 12.6138 11.5019 12.9973C12.3197 13.048 12.9999 12.3677 12.9999 11.55V10.298C13.0072 9.56709 12.4572 8.95196 11.7263 8.86511Z" fill="#ffffff"/>
</symbol>
</svg>